<?xml version="1.0" encoding="utf-8"?>
<!-- Generator: Adobe Illustrator 24.1.2, SVG Export Plug-In . SVG Version: 6.00 Build 0)  -->
<svg version="1.1" id="Layer_1" xmlns="http://www.w3.org/2000/svg" xmlns:xlink="http://www.w3.org/1999/xlink" x="0px" y="0px"
	 viewBox="0 0 69 30" style="enable-background:new 0 0 69 30;" xml:space="preserve">
<style type="text/css">
	.st0{fill:#FEFEFE;}
	.st1{fill:#010101;}
	.st2{fill:#020202;}
	.st3{fill:#040404;}
	.st4{fill:#050505;}
	.st5{fill:#030303;}
	.st6{fill:#0B0B0B;}
	.st7{fill:#060606;}
	.st8{fill:#141414;}
	.st9{fill:#FBFBFB;}
</style>
<g>
	<g>
		<path class="st1" d="M27,22.2c-2.3,1.1-4.4,1.3-6.2-0.5c-1.6-1.6-2-3.6-1.3-5.7c0.7-2.2,2.8-3.5,5-3.2c1.3,0.2,2.4,0.7,3.8,0.2
			c0.9-0.3,1.3,0.3,1.3,1.2c0,3.1,0,6.1-0.1,9.2c-0.1,2-1.2,3.4-3.2,4c-2.1,0.6-4.1,0.4-5.8-1.2c-0.4-0.4-1-0.9-0.7-1.5
			c0.3-0.8,1.2-0.4,1.8-0.4c0.4,0,0.7,0.3,1.1,0.4C25.3,26,26.3,25.4,27,22.2z"/>
		<path class="st2" d="M8.5,8.9c1.4-0.1,2.9,0.4,3.8,1.8c0.4,0.6,1.2,1.5,0.4,2.2c-0.6,0.5-1.7,0.6-2.3-0.5
			c-0.9-1.4-2.3-1.1-3.6-0.9c-0.7,0.1-1.3,0.5-1.3,1.3c-0.1,0.8,0.5,1.2,1.2,1.3c1.3,0.3,2.6,0.6,3.8,1c1.8,0.6,3.1,1.5,3.1,3.7
			c-0.1,2-1.2,3.2-3,3.8c-2.9,1-6.1,0.2-7.4-1.9c-0.4-0.7-1.3-1.7-0.2-2.4c0.8-0.5,1.8-0.4,2.4,0.9c0.9,1.6,2.5,1.7,4.2,1.4
			c0.8-0.2,1.4-0.6,1.5-1.5c0.1-0.9-0.6-1.3-1.4-1.5c-0.8-0.2-1.6-0.4-2.4-0.6c-3.3-0.8-4.6-2.1-4.3-4.5C3.2,10.2,5.2,8.9,8.5,8.9z"
			/>
		<path class="st3" d="M62.4,19.9c0.8-2.4,1.5-4,2-5.8c0.4-1.5,1.4-1.7,2.4-1.3c1.3,0.5,0.2,1.4,0,2c-1.2,3.4-2.5,6.7-3.7,10
			c-0.5,1.4-1.4,2.5-3,2.6c-0.6,0.1-1.4,0.4-1.6-0.6c-0.1-0.6-0.2-1.3,0.7-1.7c2.2-0.8,2-2.3,1.3-4c-0.9-2.1-1.7-4.3-2.5-6.5
			c-0.2-0.6-1.1-1.4,0.1-1.9c1-0.3,2-0.2,2.4,1.1C60.9,15.7,61.6,17.5,62.4,19.9z"/>
		<path class="st3" d="M31.6,17.7c0-0.8,0-1.7,0-2.5c-0.1-1.9,0.2-3.2,2.6-2.1c0.2,0.1,0.6-0.1,0.9-0.1c3.8-0.9,5.5,0.4,5.6,4.3
			c0,1.4,0,2.8,0,4.2c0,0.8-0.1,1.4-1.2,1.4c-1.2,0-1.4-0.5-1.4-1.5c0-1.5,0-3,0-4.5c0-1.1-0.6-1.9-1.8-1.9c-1.2,0-1.9,0.7-2,1.8
			c-0.1,1.2,0,2.5-0.1,3.7c-0.1,1,0.5,2.4-1.3,2.3c-1.8-0.1-1.1-1.5-1.2-2.4C31.5,19.5,31.6,18.6,31.6,17.7z"/>
		<path class="st4" d="M48.8,22.9c-1.1,0.1-1.2-0.6-1.2-1.4c0-1.4,0-2.8,0-4.2c0-0.8,0.4-1.9-0.8-2.4c-0.4-0.2-0.5-0.9-0.3-1.1
			c1.3-1.6,1.3-4.1,3.5-5c0.7-0.3,1.6-0.7,2,0.1c0.4,0.6,0.5,1.6-0.5,2.1c-1.1,0.6-1.7,1.2,0.1,1.9c0.9,0.4,0.8,1.9,0.1,2
			c-2,0.3-1.3,1.8-1.4,2.9c-0.1,1.3,0,2.7,0,4C50.2,22.7,49.7,23.1,48.8,22.9z"/>
		<path class="st5" d="M56.1,15.9c0,1.9,0,3.8,0,5.7c0,0.9-0.2,1.4-1.3,1.4c-1,0-1.3-0.4-1.3-1.3c0-4,0-8,0-12c0-1,0.5-1.2,1.4-1.2
			c1.1,0,1.2,0.6,1.2,1.4C56,11.9,56.1,13.9,56.1,15.9z"/>
		<path class="st6" d="M18,18c0,1.2,0,2.3,0,3.5c0,1-0.2,1.6-1.4,1.5c-1,0-1.3-0.5-1.3-1.4c0-2.5,0-4.9,0-7.4c0-0.9,0.2-1.4,1.2-1.4
			c1.1,0,1.4,0.5,1.4,1.5C17.9,15.5,18,16.7,18,18z"/>
		<path class="st7" d="M45.1,17.9c0,1.2,0,2.5,0,3.7c0,0.9-0.3,1.4-1.3,1.4c-1,0-1.3-0.4-1.3-1.3c0-2.6,0-5.1,0-7.7
			c0-1,0.5-1.2,1.4-1.2c0.8,0,1.2,0.4,1.2,1.2C45.1,15.3,45.1,16.6,45.1,17.9z"/>
		<path class="st8" d="M43.9,5.4c-1-0.2-1.6-0.7-1.5-1.7c0.1-0.9,0.6-1.3,1.5-1.3c0.9,0,1.4,0.5,1.5,1.3C45.4,4.7,44.7,5.2,43.9,5.4
			z"/>
		<path class="st9" d="M27.1,17.7c-0.1,1.8-0.9,2.9-2.6,2.9c-1.9,0-2.6-1.2-2.5-3C22,16,23,15,24.6,15C26.3,15.1,27,16.3,27.1,17.7z
			"/>
	</g>
</g>
</svg>
